# xmcd
#
# Track frame offsets: 
#        150
#        13237
#        29342
#        48587
#        63972
#        78892
#        98925
#        111472
#        130232
#        149970
#        169340
#        184220
#        203340
#
# Disc length: 2877 seconds
#
# Revision: 4
# Processed by: cddbd v1.5.2PL0 Copyright (c) Steve Scherf et al.
# Submitted via: ExactAudioCopy v0.95b3
#
DISCID=be0b3b0d
DTITLE=Mavericks - The Mavericks
DYEAR=1990
DGENRE=Country
TTITLE0=You'll Never Know
TTITLE1=The End Of The Line (Jim Bakker)
TTITLE2=This Broken Heart
TTITLE3=Mr. Jones
TTITLE4=Tomorrow Never Comes
TTITLE5=The Lonely Waltz
TTITLE6=Watch Over Me
TTITLE7=A Better Way
TTITLE8=Another Lonely Life (Paul's Song)
TTITLE9=I Don't Care (If You Love Me Anymore)
TTITLE10=Keep Moving On
TTITLE11=I'll Give You Back (When You Belong To Me)
TTITLE12=Strength To Say Goodbye
EXTD=YEAR: 1990
EXTT0=
EXTT1=
EXTT2=
EXTT3=
EXTT4=
EXTT5=
EXTT6=
EXTT7=
EXTT8=
EXTT9=
EXTT10=
EXTT11=
EXTT12=
PLAYORDER=
